<svg xmlns="http://www.w3.org/2000/svg" xmlns:xlink="http://www.w3.org/1999/xlink" width="1366" zoomAndPan="magnify" viewBox="0 0 1024.5 576" height="768" preserveAspectRatio="xMidYMid meet" version="1.0"><defs><filter x="0%" y="0%" width="100%" height="100%" id="8857bc9d1d"><feColorMatrix values="0 0 0 0 1 0 0 0 0 1 0 0 0 0 1 0 0 0 1 0" color-interpolation-filters="sRGB"/></filter><g/><clipPath id="931bf4e61b"><path d="M 0 0.140625 L 1024 0.140625 L 1024 575.859375 L 0 575.859375 Z M 0 0.140625 " clip-rule="nonzero"/></clipPath><clipPath id="93c63eb6c8"><path d="M 211 29 L 854.621094 29 L 854.621094 404 L 211 404 Z M 211 29 " clip-rule="nonzero"/></clipPath><mask id="12f82eb6a2"><g filter="url(#8857bc9d1d)"><rect x="-102.45" width="1229.4" fill="#000000" y="-57.6" height="691.2" fill-opacity="0.25"/></g></mask><clipPath id="777ff98ef1"><path d="M 0.335938 373 L 643.621094 373 L 643.621094 374.382812 L 0.335938 374.382812 Z M 0.335938 373 " clip-rule="nonzero"/></clipPath><clipPath id="205f49e65d"><path d="M 0.335938 280 L 643.621094 280 L 643.621094 282 L 0.335938 282 Z M 0.335938 280 " clip-rule="nonzero"/></clipPath><clipPath id="1a120b894e"><path d="M 0.335938 187 L 643.621094 187 L 643.621094 189 L 0.335938 189 Z M 0.335938 187 " clip-rule="nonzero"/></clipPath><clipPath id="e8abbc5cca"><path d="M 0.335938 94 L 643.621094 94 L 643.621094 96 L 0.335938 96 Z M 0.335938 94 " clip-rule="nonzero"/></clipPath><clipPath id="4f2924417e"><path d="M 0.335938 1 L 643.621094 1 L 643.621094 3 L 0.335938 3 Z M 0.335938 1 " clip-rule="nonzero"/></clipPath><clipPath id="b46648adff"><rect x="0" width="644" y="0" height="375"/></clipPath><clipPath id="1851898e08"><path d="M 211 495 L 854.621094 495 L 854.621094 498 L 211 498 Z M 211 495 " clip-rule="nonzero"/></clipPath><mask id="cc20921da4"><g filter="url(#8857bc9d1d)"><rect x="-102.45" width="1229.4" fill="#000000" y="-57.6" height="691.2" fill-opacity="0.6"/></g></mask><clipPath id="f7d0c4ca25"><path d="M 0.335938 0.257812 L 643.621094 0.257812 L 643.621094 2 L 0.335938 2 Z M 0.335938 0.257812 " clip-rule="nonzero"/></clipPath><clipPath id="8fb019173d"><rect x="0" width="644" y="0" height="3"/></clipPath><clipPath id="30bd588315"><path d="M 252.175781 402.839844 L 290.175781 402.839844 L 290.175781 495.875 L 252.175781 495.875 Z M 252.175781 402.839844 " clip-rule="nonzero"/></clipPath><clipPath id="1fca8e2aef"><path d="M 292.175781 402.839844 L 330.179688 402.839844 L 330.179688 495.875 L 292.175781 495.875 Z M 292.175781 402.839844 " clip-rule="nonzero"/></clipPath><clipPath id="9c68145ec9"><path d="M 343.289062 347.019531 L 381.292969 347.019531 L 381.292969 495.875 L 343.289062 495.875 Z M 343.289062 347.019531 " clip-rule="nonzero"/></clipPath><clipPath id="4a817cf504"><path d="M 383.292969 347.019531 L 421.292969 347.019531 L 421.292969 495.875 L 383.292969 495.875 Z M 383.292969 347.019531 " clip-rule="nonzero"/></clipPath><clipPath id="d8867e3b88"><path d="M 423.292969 421.445312 L 461.292969 421.445312 L 461.292969 495.875 L 423.292969 495.875 Z M 423.292969 421.445312 " clip-rule="nonzero"/></clipPath><clipPath id="48206de622"><path d="M 474.40625 216.773438 L 512.40625 216.773438 L 512.40625 495.875 L 474.40625 495.875 Z M 474.40625 216.773438 " clip-rule="nonzero"/></clipPath><clipPath id="ed331c772b"><path d="M 514.40625 309.808594 L 552.410156 309.808594 L 552.410156 495.875 L 514.40625 495.875 Z M 514.40625 309.808594 " clip-rule="nonzero"/></clipPath><clipPath id="66b5456558"><path d="M 554.410156 402.839844 L 592.410156 402.839844 L 592.410156 495.875 L 554.410156 495.875 Z M 554.410156 402.839844 " clip-rule="nonzero"/></clipPath><clipPath id="0212d13f85"><path d="M 605.523438 160.957031 L 643.523438 160.957031 L 643.523438 495.875 L 605.523438 495.875 Z M 605.523438 160.957031 " clip-rule="nonzero"/></clipPath><clipPath id="067689528d"><path d="M 645.523438 235.382812 L 683.527344 235.382812 L 683.527344 495.875 L 645.523438 495.875 Z M 645.523438 235.382812 " clip-rule="nonzero"/></clipPath><clipPath id="cce23a2c5f"><path d="M 685.527344 347.019531 L 723.527344 347.019531 L 723.527344 495.875 L 685.527344 495.875 Z M 685.527344 347.019531 " clip-rule="nonzero"/></clipPath><clipPath id="0f9e6496f7"><path d="M 736.640625 86.527344 L 774.640625 86.527344 L 774.640625 495.875 L 736.640625 495.875 Z M 736.640625 86.527344 " clip-rule="nonzero"/></clipPath><clipPath id="13ef0bec5b"><path d="M 776.640625 123.742188 L 814.640625 123.742188 L 814.640625 495.875 L 776.640625 495.875 Z M 776.640625 123.742188 " clip-rule="nonzero"/></clipPath><clipPath id="d2bb393d33"><path d="M 816.640625 347.019531 L 854.621094 347.019531 L 854.621094 495.875 L 816.640625 495.875 Z M 816.640625 347.019531 " clip-rule="nonzero"/></clipPath></defs><g clip-path="url(#931bf4e61b)"><path fill="#ffffff" d="M 0 0.140625 L 1024 0.140625 L 1024 575.859375 L 0 575.859375 Z M 0 0.140625 " fill-opacity="1" fill-rule="nonzero"/><path fill="#ffffff" d="M 0 0.140625 L 1024 0.140625 L 1024 575.859375 L 0 575.859375 Z M 0 0.140625 " fill-opacity="1" fill-rule="nonzero"/></g><g fill="#000000" fill-opacity="1"><g transform="translate(246.040312, 517.912791)"><g><path d="M 6.21875 -1.453125 L 6.65625 -0.484375 C 6.4375 -0.265625 6.148438 -0.101562 5.796875 0 C 5.453125 0.113281 5.070312 0.171875 4.65625 0.171875 C 2.894531 0.171875 2.015625 -0.71875 2.015625 -2.5 L 2.015625 -8.09375 L 0.421875 -8.09375 L 0.421875 -9.21875 L 2.015625 -9.21875 L 2.015625 -11.15625 L 3.375 -11.390625 L 3.375 -9.21875 L 6.34375 -9.21875 L 6.34375 -8.09375 L 3.375 -8.09375 L 3.375 -2.625 C 3.375 -1.570312 3.832031 -1.046875 4.75 -1.046875 C 5.257812 -1.046875 5.691406 -1.179688 6.046875 -1.453125 Z M 6.21875 -1.453125 "/></g></g></g><g fill="#000000" fill-opacity="1"><g transform="translate(252.941107, 517.912791)"><g><path d="M 8.765625 -4.296875 L 2.453125 -4.296875 C 2.484375 -3.171875 2.75 -2.347656 3.25 -1.828125 C 3.75 -1.304688 4.429688 -1.046875 5.296875 -1.046875 C 5.953125 -1.046875 6.476562 -1.160156 6.875 -1.390625 C 7.28125 -1.628906 7.597656 -2 7.828125 -2.5 L 8 -2.5 L 8.890625 -1.96875 C 8.617188 -1.300781 8.191406 -0.773438 7.609375 -0.390625 C 7.023438 -0.015625 6.253906 0.171875 5.296875 0.171875 C 4.410156 0.171875 3.644531 0 3 -0.34375 C 2.363281 -0.695312 1.875 -1.226562 1.53125 -1.9375 C 1.1875 -2.65625 1.015625 -3.539062 1.015625 -4.59375 C 1.015625 -5.644531 1.195312 -6.53125 1.5625 -7.25 C 1.925781 -7.96875 2.421875 -8.5 3.046875 -8.84375 C 3.679688 -9.195312 4.40625 -9.375 5.21875 -9.375 C 6.394531 -9.375 7.3125 -9.039062 7.96875 -8.375 C 8.632812 -7.71875 8.972656 -6.734375 8.984375 -5.421875 C 8.984375 -4.910156 8.972656 -4.566406 8.953125 -4.390625 Z M 7.640625 -5.421875 C 7.617188 -6.398438 7.398438 -7.113281 6.984375 -7.5625 C 6.578125 -8.007812 5.988281 -8.234375 5.21875 -8.234375 C 4.40625 -8.234375 3.769531 -8.007812 3.3125 -7.5625 C 2.851562 -7.113281 2.578125 -6.398438 2.484375 -5.421875 Z M 7.640625 -5.421875 "/></g></g></g><g fill="#000000" fill-opacity="1"><g transform="translate(262.754112, 517.912791)"><g><path d="M 3.796875 0.171875 C 2.890625 0.171875 2.179688 -0.0625 1.671875 -0.53125 C 1.160156 -1.007812 0.90625 -1.6875 0.90625 -2.5625 C 0.90625 -3.101562 1.015625 -3.5625 1.234375 -3.9375 C 1.460938 -4.3125 1.8125 -4.617188 2.28125 -4.859375 C 2.757812 -5.097656 3.378906 -5.28125 4.140625 -5.40625 C 4.816406 -5.519531 5.328125 -5.644531 5.671875 -5.78125 C 6.015625 -5.925781 6.242188 -6.082031 6.359375 -6.25 C 6.484375 -6.425781 6.546875 -6.644531 6.546875 -6.90625 C 6.546875 -7.320312 6.398438 -7.640625 6.109375 -7.859375 C 5.828125 -8.085938 5.367188 -8.203125 4.734375 -8.203125 C 4.140625 -8.203125 3.628906 -8.082031 3.203125 -7.84375 C 2.785156 -7.613281 2.394531 -7.269531 2.03125 -6.8125 L 1.875 -6.8125 L 1.203125 -7.765625 C 1.585938 -8.253906 2.082031 -8.644531 2.6875 -8.9375 C 3.289062 -9.226562 3.972656 -9.375 4.734375 -9.375 C 5.828125 -9.375 6.628906 -9.132812 7.140625 -8.65625 C 7.648438 -8.1875 7.90625 -7.53125 7.90625 -6.6875 L 7.90625 -1.8125 C 7.90625 -1.300781 8.125 -1.046875 8.5625 -1.046875 C 8.707031 -1.046875 8.847656 -1.070312 8.984375 -1.125 L 9.09375 -1.078125 L 9.25 -0.140625 C 9.15625 -0.078125 9.023438 -0.03125 8.859375 0 C 8.691406 0.0390625 8.523438 0.0625 8.359375 0.0625 C 7.847656 0.0625 7.460938 -0.046875 7.203125 -0.265625 C 6.941406 -0.484375 6.773438 -0.8125 6.703125 -1.25 L 6.53125 -1.265625 C 6.269531 -0.785156 5.914062 -0.425781 5.46875 -0.1875 C 5.03125 0.0507812 4.472656 0.171875 3.796875 0.171875 Z M 4.09375 -0.90625 C 4.601562 -0.90625 5.046875 -1.023438 5.421875 -1.265625 C 5.804688 -1.503906 6.097656 -1.835938 6.296875 -2.265625 C 6.492188 -2.691406 6.59375 -3.1875 6.59375 -3.75 L 6.59375 -4.921875 L 6.4375 -4.953125 C 6.226562 -4.804688 5.972656 -4.679688 5.671875 -4.578125 C 5.378906 -4.484375 4.972656 -4.398438 4.453125 -4.328125 C 3.910156 -4.253906 3.484375 -4.140625 3.171875 -3.984375 C 2.859375 -3.835938 2.632812 -3.648438 2.5 -3.421875 C 2.363281 -3.191406 2.296875 -2.90625 2.296875 -2.5625 C 2.296875 -2.019531 2.453125 -1.609375 2.765625 -1.328125 C 3.085938 -1.046875 3.53125 -0.90625 4.09375 -0.90625 Z M 4.09375 -0.90625 "/></g></g></g><g fill="#000000" fill-opacity="1"><g transform="translate(272.275069, 517.912791)"><g><path d="M 1.609375 0 L 1.609375 -9.203125 L 2.890625 -9.203125 L 2.890625 -7.84375 L 3.078125 -7.8125 C 3.378906 -8.332031 3.75 -8.722656 4.1875 -8.984375 C 4.632812 -9.242188 5.171875 -9.375 5.796875 -9.375 C 6.503906 -9.375 7.050781 -9.238281 7.4375 -8.96875 C 7.832031 -8.707031 8.140625 -8.273438 8.359375 -7.671875 L 8.53125 -7.671875 C 8.84375 -8.234375 9.234375 -8.65625 9.703125 -8.9375 C 10.171875 -9.226562 10.742188 -9.375 11.421875 -9.375 C 12.367188 -9.375 13.070312 -9.117188 13.53125 -8.609375 C 14 -8.097656 14.234375 -7.320312 14.234375 -6.28125 L 14.234375 0 L 12.875 0 L 12.875 -6.25 C 12.875 -6.914062 12.734375 -7.40625 12.453125 -7.71875 C 12.171875 -8.039062 11.71875 -8.203125 11.09375 -8.203125 C 10.351562 -8.203125 9.75 -7.929688 9.28125 -7.390625 C 8.820312 -6.859375 8.59375 -5.976562 8.59375 -4.75 L 8.59375 0 L 7.234375 0 L 7.234375 -6.25 C 7.234375 -6.914062 7.09375 -7.40625 6.8125 -7.71875 C 6.53125 -8.039062 6.078125 -8.203125 5.453125 -8.203125 C 4.722656 -8.203125 4.125 -7.941406 3.65625 -7.421875 C 3.195312 -6.898438 2.96875 -6.0625 2.96875 -4.90625 L 2.96875 0 Z M 1.609375 0 "/></g></g></g><g fill="#000000" fill-opacity="1"><g transform="translate(287.962527, 517.912791)"><g><path d="M 0.875 0 L 0.875 -1.1875 L 4.203125 -1.1875 L 4.203125 -10.515625 L 4 -10.5625 C 3.46875 -10.300781 3 -10.097656 2.59375 -9.953125 C 2.1875 -9.804688 1.664062 -9.671875 1.03125 -9.546875 L 1.03125 -10.859375 C 1.65625 -10.992188 2.273438 -11.175781 2.890625 -11.40625 C 3.503906 -11.632812 4.0625 -11.898438 4.5625 -12.203125 L 5.59375 -12.203125 L 5.59375 -1.1875 L 8.578125 -1.1875 L 8.578125 0 Z M 0.875 0 "/></g></g></g><g fill="#000000" fill-opacity="1"><g transform="translate(374.919289, 517.912791)"><g><path d="M 6.21875 -1.453125 L 6.65625 -0.484375 C 6.4375 -0.265625 6.148438 -0.101562 5.796875 0 C 5.453125 0.113281 5.070312 0.171875 4.65625 0.171875 C 2.894531 0.171875 2.015625 -0.71875 2.015625 -2.5 L 2.015625 -8.09375 L 0.421875 -8.09375 L 0.421875 -9.21875 L 2.015625 -9.21875 L 2.015625 -11.15625 L 3.375 -11.390625 L 3.375 -9.21875 L 6.34375 -9.21875 L 6.34375 -8.09375 L 3.375 -8.09375 L 3.375 -2.625 C 3.375 -1.570312 3.832031 -1.046875 4.75 -1.046875 C 5.257812 -1.046875 5.691406 -1.179688 6.046875 -1.453125 Z M 6.21875 -1.453125 "/></g></g></g><g fill="#000000" fill-opacity="1"><g transform="translate(381.820084, 517.912791)"><g><path d="M 8.765625 -4.296875 L 2.453125 -4.296875 C 2.484375 -3.171875 2.75 -2.347656 3.25 -1.828125 C 3.75 -1.304688 4.429688 -1.046875 5.296875 -1.046875 C 5.953125 -1.046875 6.476562 -1.160156 6.875 -1.390625 C 7.28125 -1.628906 7.597656 -2 7.828125 -2.5 L 8 -2.5 L 8.890625 -1.96875 C 8.617188 -1.300781 8.191406 -0.773438 7.609375 -0.390625 C 7.023438 -0.015625 6.253906 0.171875 5.296875 0.171875 C 4.410156 0.171875 3.644531 0 3 -0.34375 C 2.363281 -0.695312 1.875 -1.226562 1.53125 -1.9375 C 1.1875 -2.65625 1.015625 -3.539062 1.015625 -4.59375 C 1.015625 -5.644531 1.195312 -6.53125 1.5625 -7.25 C 1.925781 -7.96875 2.421875 -8.5 3.046875 -8.84375 C 3.679688 -9.195312 4.40625 -9.375 5.21875 -9.375 C 6.394531 -9.375 7.3125 -9.039062 7.96875 -8.375 C 8.632812 -7.71875 8.972656 -6.734375 8.984375 -5.421875 C 8.984375 -4.910156 8.972656 -4.566406 8.953125 -4.390625 Z M 7.640625 -5.421875 C 7.617188 -6.398438 7.398438 -7.113281 6.984375 -7.5625 C 6.578125 -8.007812 5.988281 -8.234375 5.21875 -8.234375 C 4.40625 -8.234375 3.769531 -8.007812 3.3125 -7.5625 C 2.851562 -7.113281 2.578125 -6.398438 2.484375 -5.421875 Z M 7.640625 -5.421875 "/></g></g></g><g fill="#000000" fill-opacity="1"><g transform="translate(391.633089, 517.912791)"><g><path d="M 3.796875 0.171875 C 2.890625 0.171875 2.179688 -0.0625 1.671875 -0.53125 C 1.160156 -1.007812 0.90625 -1.6875 0.90625 -2.5625 C 0.90625 -3.101562 1.015625 -3.5625 1.234375 -3.9375 C 1.460938 -4.3125 1.8125 -4.617188 2.28125 -4.859375 C 2.757812 -5.097656 3.378906 -5.28125 4.140625 -5.40625 C 4.816406 -5.519531 5.328125 -5.644531 5.671875 -5.78125 C 6.015625 -5.925781 6.242188 -6.082031 6.359375 -6.25 C 6.484375 -6.425781 6.546875 -6.644531 6.546875 -6.90625 C 6.546875 -7.320312 6.398438 -7.640625 6.109375 -7.859375 C 5.828125 -8.085938 5.367188 -8.203125 4.734375 -8.203125 C 4.140625 -8.203125 3.628906 -8.082031 3.203125 -7.84375 C 2.785156 -7.613281 2.394531 -7.269531 2.03125 -6.8125 L 1.875 -6.8125 L 1.203125 -7.765625 C 1.585938 -8.253906 2.082031 -8.644531 2.6875 -8.9375 C 3.289062 -9.226562 3.972656 -9.375 4.734375 -9.375 C 5.828125 -9.375 6.628906 -9.132812 7.140625 -8.65625 C 7.648438 -8.1875 7.90625 -7.53125 7.90625 -6.6875 L 7.90625 -1.8125 C 7.90625 -1.300781 8.125 -1.046875 8.5625 -1.046875 C 8.707031 -1.046875 8.847656 -1.070312 8.984375 -1.125 L 9.09375 -1.078125 L 9.25 -0.140625 C 9.15625 -0.078125 9.023438 -0.03125 8.859375 0 C 8.691406 0.0390625 8.523438 0.0625 8.359375 0.0625 C 7.847656 0.0625 7.460938 -0.046875 7.203125 -0.265625 C 6.941406 -0.484375 6.773438 -0.8125 6.703125 -1.25 L 6.53125 -1.265625 C 6.269531 -0.785156 5.914062 -0.425781 5.46875 -0.1875 C 5.03125 0.0507812 4.472656 0.171875 3.796875 0.171875 Z M 4.09375 -0.90625 C 4.601562 -0.90625 5.046875 -1.023438 5.421875 -1.265625 C 5.804688 -1.503906 6.097656 -1.835938 6.296875 -2.265625 C 6.492188 -2.691406 6.59375 -3.1875 6.59375 -3.75 L 6.59375 -4.921875 L 6.4375 -4.953125 C 6.226562 -4.804688 5.972656 -4.679688 5.671875 -4.578125 C 5.378906 -4.484375 4.972656 -4.398438 4.453125 -4.328125 C 3.910156 -4.253906 3.484375 -4.140625 3.171875 -3.984375 C 2.859375 -3.835938 2.632812 -3.648438 2.5 -3.421875 C 2.363281 -3.191406 2.296875 -2.90625 2.296875 -2.5625 C 2.296875 -2.019531 2.453125 -1.609375 2.765625 -1.328125 C 3.085938 -1.046875 3.53125 -0.90625 4.09375 -0.90625 Z M 4.09375 -0.90625 "/></g></g></g><g fill="#000000" fill-opacity="1"><g transform="translate(401.154047, 517.912791)"><g><path d="M 1.609375 0 L 1.609375 -9.203125 L 2.890625 -9.203125 L 2.890625 -7.84375 L 3.078125 -7.8125 C 3.378906 -8.332031 3.75 -8.722656 4.1875 -8.984375 C 4.632812 -9.242188 5.171875 -9.375 5.796875 -9.375 C 6.503906 -9.375 7.050781 -9.238281 7.4375 -8.96875 C 7.832031 -8.707031 8.140625 -8.273438 8.359375 -7.671875 L 8.53125 -7.671875 C 8.84375 -8.234375 9.234375 -8.65625 9.703125 -8.9375 C 10.171875 -9.226562 10.742188 -9.375 11.421875 -9.375 C 12.367188 -9.375 13.070312 -9.117188 13.53125 -8.609375 C 14 -8.097656 14.234375 -7.320312 14.234375 -6.28125 L 14.234375 0 L 12.875 0 L 12.875 -6.25 C 12.875 -6.914062 12.734375 -7.40625 12.453125 -7.71875 C 12.171875 -8.039062 11.71875 -8.203125 11.09375 -8.203125 C 10.351562 -8.203125 9.75 -7.929688 9.28125 -7.390625 C 8.820312 -6.859375 8.59375 -5.976562 8.59375 -4.75 L 8.59375 0 L 7.234375 0 L 7.234375 -6.25 C 7.234375 -6.914062 7.09375 -7.40625 6.8125 -7.71875 C 6.53125 -8.039062 6.078125 -8.203125 5.453125 -8.203125 C 4.722656 -8.203125 4.125 -7.941406 3.65625 -7.421875 C 3.195312 -6.898438 2.96875 -6.0625 2.96875 -4.90625 L 2.96875 0 Z M 1.609375 0 "/></g></g></g><g fill="#000000" fill-opacity="1"><g transform="translate(416.841504, 517.912791)"><g/></g></g><g fill="#000000" fill-opacity="1"><g transform="translate(421.030389, 517.912791)"><g><path d="M 0.734375 -0.5625 C 0.734375 -1.226562 0.804688 -1.765625 0.953125 -2.171875 C 1.097656 -2.585938 1.347656 -2.972656 1.703125 -3.328125 C 2.066406 -3.691406 2.632812 -4.15625 3.40625 -4.71875 L 4.75 -5.703125 C 5.25 -6.066406 5.65625 -6.398438 5.96875 -6.703125 C 6.28125 -7.003906 6.523438 -7.332031 6.703125 -7.6875 C 6.890625 -8.050781 6.984375 -8.457031 6.984375 -8.90625 C 6.984375 -9.625 6.789062 -10.164062 6.40625 -10.53125 C 6.019531 -10.90625 5.414062 -11.09375 4.59375 -11.09375 C 3.945312 -11.09375 3.375 -10.941406 2.875 -10.640625 C 2.375 -10.335938 1.972656 -9.910156 1.671875 -9.359375 L 1.484375 -9.328125 L 0.625 -10.234375 C 1.039062 -10.898438 1.582031 -11.421875 2.25 -11.796875 C 2.914062 -12.179688 3.695312 -12.375 4.59375 -12.375 C 5.46875 -12.375 6.191406 -12.226562 6.765625 -11.9375 C 7.335938 -11.644531 7.757812 -11.238281 8.03125 -10.71875 C 8.300781 -10.195312 8.4375 -9.59375 8.4375 -8.90625 C 8.4375 -8.363281 8.320312 -7.851562 8.09375 -7.375 C 7.863281 -6.90625 7.539062 -6.460938 7.125 -6.046875 C 6.707031 -5.628906 6.1875 -5.1875 5.5625 -4.71875 L 4.203125 -3.734375 C 3.691406 -3.359375 3.300781 -3.039062 3.03125 -2.78125 C 2.757812 -2.519531 2.5625 -2.265625 2.4375 -2.015625 C 2.3125 -1.765625 2.25 -1.488281 2.25 -1.1875 L 8.4375 -1.1875 L 8.4375 0 L 0.734375 0 Z M 0.734375 -0.5625 "/></g></g></g><g fill="#000000" fill-opacity="1"><g transform="translate(505.765957, 517.912791)"><g><path d="M 6.21875 -1.453125 L 6.65625 -0.484375 C 6.4375 -0.265625 6.148438 -0.101562 5.796875 0 C 5.453125 0.113281 5.070312 0.171875 4.65625 0.171875 C 2.894531 0.171875 2.015625 -0.71875 2.015625 -2.5 L 2.015625 -8.09375 L 0.421875 -8.09375 L 0.421875 -9.21875 L 2.015625 -9.21875 L 2.015625 -11.15625 L 3.375 -11.390625 L 3.375 -9.21875 L 6.34375 -9.21875 L 6.34375 -8.09375 L 3.375 -8.09375 L 3.375 -2.625 C 3.375 -1.570312 3.832031 -1.046875 4.75 -1.046875 C 5.257812 -1.046875 5.691406 -1.179688 6.046875 -1.453125 Z M 6.21875 -1.453125 "/></g></g></g><g fill="#000000" fill-opacity="1"><g transform="translate(512.666753, 517.912791)"><g><path d="M 8.765625 -4.296875 L 2.453125 -4.296875 C 2.484375 -3.171875 2.75 -2.347656 3.25 -1.828125 C 3.75 -1.304688 4.429688 -1.046875 5.296875 -1.046875 C 5.953125 -1.046875 6.476562 -1.160156 6.875 -1.390625 C 7.28125 -1.628906 7.597656 -2 7.828125 -2.5 L 8 -2.5 L 8.890625 -1.96875 C 8.617188 -1.300781 8.191406 -0.773438 7.609375 -0.390625 C 7.023438 -0.015625 6.253906 0.171875 5.296875 0.171875 C 4.410156 0.171875 3.644531 0 3 -0.34375 C 2.363281 -0.695312 1.875 -1.226562 1.53125 -1.9375 C 1.1875 -2.65625 1.015625 -3.539062 1.015625 -4.59375 C 1.015625 -5.644531 1.195312 -6.53125 1.5625 -7.25 C 1.925781 -7.96875 2.421875 -8.5 3.046875 -8.84375 C 3.679688 -9.195312 4.40625 -9.375 5.21875 -9.375 C 6.394531 -9.375 7.3125 -9.039062 7.96875 -8.375 C 8.632812 -7.71875 8.972656 -6.734375 8.984375 -5.421875 C 8.984375 -4.910156 8.972656 -4.566406 8.953125 -4.390625 Z M 7.640625 -5.421875 C 7.617188 -6.398438 7.398438 -7.113281 6.984375 -7.5625 C 6.578125 -8.007812 5.988281 -8.234375 5.21875 -8.234375 C 4.40625 -8.234375 3.769531 -8.007812 3.3125 -7.5625 C 2.851562 -7.113281 2.578125 -6.398438 2.484375 -5.421875 Z M 7.640625 -5.421875 "/></g></g></g><g fill="#000000" fill-opacity="1"><g transform="translate(522.479758, 517.912791)"><g><path d="M 3.796875 0.171875 C 2.890625 0.171875 2.179688 -0.0625 1.671875 -0.53125 C 1.160156 -1.007812 0.90625 -1.6875 0.90625 -2.5625 C 0.90625 -3.101562 1.015625 -3.5625 1.234375 -3.9375 C 1.460938 -4.3125 1.8125 -4.617188 2.28125 -4.859375 C 2.757812 -5.097656 3.378906 -5.28125 4.140625 -5.40625 C 4.816406 -5.519531 5.328125 -5.644531 5.671875 -5.78125 C 6.015625 -5.925781 6.242188 -6.082031 6.359375 -6.25 C 6.484375 -6.425781 6.546875 -6.644531 6.546875 -6.90625 C 6.546875 -7.320312 6.398438 -7.640625 6.109375 -7.859375 C 5.828125 -8.085938 5.367188 -8.203125 4.734375 -8.203125 C 4.140625 -8.203125 3.628906 -8.082031 3.203125 -7.84375 C 2.785156 -7.613281 2.394531 -7.269531 2.03125 -6.8125 L 1.875 -6.8125 L 1.203125 -7.765625 C 1.585938 -8.253906 2.082031 -8.644531 2.6875 -8.9375 C 3.289062 -9.226562 3.972656 -9.375 4.734375 -9.375 C 5.828125 -9.375 6.628906 -9.132812 7.140625 -8.65625 C 7.648438 -8.1875 7.90625 -7.53125 7.90625 -6.6875 L 7.90625 -1.8125 C 7.90625 -1.300781 8.125 -1.046875 8.5625 -1.046875 C 8.707031 -1.046875 8.847656 -1.070312 8.984375 -1.125 L 9.09375 -1.078125 L 9.25 -0.140625 C 9.15625 -0.078125 9.023438 -0.03125 8.859375 0 C 8.691406 0.0390625 8.523438 0.0625 8.359375 0.0625 C 7.847656 0.0625 7.460938 -0.046875 7.203125 -0.265625 C 6.941406 -0.484375 6.773438 -0.8125 6.703125 -1.25 L 6.53125 -1.265625 C 6.269531 -0.785156 5.914062 -0.425781 5.46875 -0.1875 C 5.03125 0.0507812 4.472656 0.171875 3.796875 0.171875 Z M 4.09375 -0.90625 C 4.601562 -0.90625 5.046875 -1.023438 5.421875 -1.265625 C 5.804688 -1.503906 6.097656 -1.835938 6.296875 -2.265625 C 6.492188 -2.691406 6.59375 -3.1875 6.59375 -3.75 L 6.59375 -4.921875 L 6.4375 -4.953125 C 6.226562 -4.804688 5.972656 -4.679688 5.671875 -4.578125 C 5.378906 -4.484375 4.972656 -4.398438 4.453125 -4.328125 C 3.910156 -4.253906 3.484375 -4.140625 3.171875 -3.984375 C 2.859375 -3.835938 2.632812 -3.648438 2.5 -3.421875 C 2.363281 -3.191406 2.296875 -2.90625 2.296875 -2.5625 C 2.296875 -2.019531 2.453125 -1.609375 2.765625 -1.328125 C 3.085938 -1.046875 3.53125 -0.90625 4.09375 -0.90625 Z M 4.09375 -0.90625 "/></g></g></g><g fill="#000000" fill-opacity="1"><g transform="translate(532.000715, 517.912791)"><g><path d="M 1.609375 0 L 1.609375 -9.203125 L 2.890625 -9.203125 L 2.890625 -7.84375 L 3.078125 -7.8125 C 3.378906 -8.332031 3.75 -8.722656 4.1875 -8.984375 C 4.632812 -9.242188 5.171875 -9.375 5.796875 -9.375 C 6.503906 -9.375 7.050781 -9.238281 7.4375 -8.96875 C 7.832031 -8.707031 8.140625 -8.273438 8.359375 -7.671875 L 8.53125 -7.671875 C 8.84375 -8.234375 9.234375 -8.65625 9.703125 -8.9375 C 10.171875 -9.226562 10.742188 -9.375 11.421875 -9.375 C 12.367188 -9.375 13.070312 -9.117188 13.53125 -8.609375 C 14 -8.097656 14.234375 -7.320312 14.234375 -6.28125 L 14.234375 0 L 12.875 0 L 12.875 -6.25 C 12.875 -6.914062 12.734375 -7.40625 12.453125 -7.71875 C 12.171875 -8.039062 11.71875 -8.203125 11.09375 -8.203125 C 10.351562 -8.203125 9.75 -7.929688 9.28125 -7.390625 C 8.820312 -6.859375 8.59375 -5.976562 8.59375 -4.75 L 8.59375 0 L 7.234375 0 L 7.234375 -6.25 C 7.234375 -6.914062 7.09375 -7.40625 6.8125 -7.71875 C 6.53125 -8.039062 6.078125 -8.203125 5.453125 -8.203125 C 4.722656 -8.203125 4.125 -7.941406 3.65625 -7.421875 C 3.195312 -6.898438 2.96875 -6.0625 2.96875 -4.90625 L 2.96875 0 Z M 1.609375 0 "/></g></g></g><g fill="#000000" fill-opacity="1"><g transform="translate(547.688172, 517.912791)"><g/></g></g><g fill="#000000" fill-opacity="1"><g transform="translate(551.877057, 517.912791)"><g><path d="M 4.828125 0.171875 C 3.648438 0.171875 2.710938 -0.09375 2.015625 -0.625 C 1.316406 -1.15625 0.863281 -1.894531 0.65625 -2.84375 L 1.734375 -3.328125 L 1.921875 -3.296875 C 2.128906 -2.566406 2.453125 -2.019531 2.890625 -1.65625 C 3.335938 -1.300781 3.984375 -1.125 4.828125 -1.125 C 5.691406 -1.125 6.347656 -1.316406 6.796875 -1.703125 C 7.253906 -2.097656 7.484375 -2.679688 7.484375 -3.453125 C 7.484375 -4.203125 7.25 -4.773438 6.78125 -5.171875 C 6.320312 -5.566406 5.601562 -5.765625 4.625 -5.765625 L 3.296875 -5.765625 L 3.296875 -6.953125 L 4.484375 -6.953125 C 5.253906 -6.953125 5.863281 -7.140625 6.3125 -7.515625 C 6.769531 -7.898438 7 -8.441406 7 -9.140625 C 7 -9.796875 6.800781 -10.289062 6.40625 -10.625 C 6.007812 -10.957031 5.457031 -11.125 4.75 -11.125 C 3.519531 -11.125 2.644531 -10.632812 2.125 -9.65625 L 1.9375 -9.625 L 1.140625 -10.5 C 1.460938 -11.0625 1.929688 -11.515625 2.546875 -11.859375 C 3.171875 -12.203125 3.90625 -12.375 4.75 -12.375 C 5.53125 -12.375 6.195312 -12.253906 6.75 -12.015625 C 7.300781 -11.773438 7.71875 -11.425781 8 -10.96875 C 8.28125 -10.507812 8.421875 -9.960938 8.421875 -9.328125 C 8.421875 -8.734375 8.242188 -8.207031 7.890625 -7.75 C 7.546875 -7.289062 7.085938 -6.929688 6.515625 -6.671875 L 6.515625 -6.5 C 7.328125 -6.300781 7.9375 -5.9375 8.34375 -5.40625 C 8.75 -4.875 8.953125 -4.222656 8.953125 -3.453125 C 8.953125 -2.296875 8.601562 -1.398438 7.90625 -0.765625 C 7.21875 -0.140625 6.191406 0.171875 4.828125 0.171875 Z M 4.828125 0.171875 "/></g></g></g><g fill="#000000" fill-opacity="1"><g transform="translate(636.671287, 517.912791)"><g><path d="M 6.21875 -1.453125 L 6.65625 -0.484375 C 6.4375 -0.265625 6.148438 -0.101562 5.796875 0 C 5.453125 0.113281 5.070312 0.171875 4.65625 0.171875 C 2.894531 0.171875 2.015625 -0.71875 2.015625 -2.5 L 2.015625 -8.09375 L 0.421875 -8.09375 L 0.421875 -9.21875 L 2.015625 -9.21875 L 2.015625 -11.15625 L 3.375 -11.390625 L 3.375 -9.21875 L 6.34375 -9.21875 L 6.34375 -8.09375 L 3.375 -8.09375 L 3.375 -2.625 C 3.375 -1.570312 3.832031 -1.046875 4.75 -1.046875 C 5.257812 -1.046875 5.691406 -1.179688 6.046875 -1.453125 Z M 6.21875 -1.453125 "/></g></g></g><g fill="#000000" fill-opacity="1"><g transform="translate(643.572082, 517.912791)"><g><path d="M 8.765625 -4.296875 L 2.453125 -4.296875 C 2.484375 -3.171875 2.75 -2.347656 3.25 -1.828125 C 3.75 -1.304688 4.429688 -1.046875 5.296875 -1.046875 C 5.953125 -1.046875 6.476562 -1.160156 6.875 -1.390625 C 7.28125 -1.628906 7.597656 -2 7.828125 -2.5 L 8 -2.5 L 8.890625 -1.96875 C 8.617188 -1.300781 8.191406 -0.773438 7.609375 -0.390625 C 7.023438 -0.015625 6.253906 0.171875 5.296875 0.171875 C 4.410156 0.171875 3.644531 0 3 -0.34375 C 2.363281 -0.695312 1.875 -1.226562 1.53125 -1.9375 C 1.1875 -2.65625 1.015625 -3.539062 1.015625 -4.59375 C 1.015625 -5.644531 1.195312 -6.53125 1.5625 -7.25 C 1.925781 -7.96875 2.421875 -8.5 3.046875 -8.84375 C 3.679688 -9.195312 4.40625 -9.375 5.21875 -9.375 C 6.394531 -9.375 7.3125 -9.039062 7.96875 -8.375 C 8.632812 -7.71875 8.972656 -6.734375 8.984375 -5.421875 C 8.984375 -4.910156 8.972656 -4.566406 8.953125 -4.390625 Z M 7.640625 -5.421875 C 7.617188 -6.398438 7.398438 -7.113281 6.984375 -7.5625 C 6.578125 -8.007812 5.988281 -8.234375 5.21875 -8.234375 C 4.40625 -8.234375 3.769531 -8.007812 3.3125 -7.5625 C 2.851562 -7.113281 2.578125 -6.398438 2.484375 -5.421875 Z M 7.640625 -5.421875 "/></g></g></g><g fill="#000000" fill-opacity="1"><g transform="translate(653.385087, 517.912791)"><g><path d="M 3.796875 0.171875 C 2.890625 0.171875 2.179688 -0.0625 1.671875 -0.53125 C 1.160156 -1.007812 0.90625 -1.6875 0.90625 -2.5625 C 0.90625 -3.101562 1.015625 -3.5625 1.234375 -3.9375 C 1.460938 -4.3125 1.8125 -4.617188 2.28125 -4.859375 C 2.757812 -5.097656 3.378906 -5.28125 4.140625 -5.40625 C 4.816406 -5.519531 5.328125 -5.644531 5.671875 -5.78125 C 6.015625 -5.925781 6.242188 -6.082031 6.359375 -6.25 C 6.484375 -6.425781 6.546875 -6.644531 6.546875 -6.90625 C 6.546875 -7.320312 6.398438 -7.640625 6.109375 -7.859375 C 5.828125 -8.085938 5.367188 -8.203125 4.734375 -8.203125 C 4.140625 -8.203125 3.628906 -8.082031 3.203125 -7.84375 C 2.785156 -7.613281 2.394531 -7.269531 2.03125 -6.8125 L 1.875 -6.8125 L 1.203125 -7.765625 C 1.585938 -8.253906 2.082031 -8.644531 2.6875 -8.9375 C 3.289062 -9.226562 3.972656 -9.375 4.734375 -9.375 C 5.828125 -9.375 6.628906 -9.132812 7.140625 -8.65625 C 7.648438 -8.1875 7.90625 -7.53125 7.90625 -6.6875 L 7.90625 -1.8125 C 7.90625 -1.300781 8.125 -1.046875 8.5625 -1.046875 C 8.707031 -1.046875 8.847656 -1.070312 8.984375 -1.125 L 9.09375 -1.078125 L 9.25 -0.140625 C 9.15625 -0.078125 9.023438 -0.03125 8.859375 0 C 8.691406 0.0390625 8.523438 0.0625 8.359375 0.0625 C 7.847656 0.0625 7.460938 -0.046875 7.203125 -0.265625 C 6.941406 -0.484375 6.773438 -0.8125 6.703125 -1.25 L 6.53125 -1.265625 C 6.269531 -0.785156 5.914062 -0.425781 5.46875 -0.1875 C 5.03125 0.0507812 4.472656 0.171875 3.796875 0.171875 Z M 4.09375 -0.90625 C 4.601562 -0.90625 5.046875 -1.023438 5.421875 -1.265625 C 5.804688 -1.503906 6.097656 -1.835938 6.296875 -2.265625 C 6.492188 -2.691406 6.59375 -3.1875 6.59375 -3.75 L 6.59375 -4.921875 L 6.4375 -4.953125 C 6.226562 -4.804688 5.972656 -4.679688 5.671875 -4.578125 C 5.378906 -4.484375 4.972656 -4.398438 4.453125 -4.328125 C 3.910156 -4.253906 3.484375 -4.140625 3.171875 -3.984375 C 2.859375 -3.835938 2.632812 -3.648438 2.5 -3.421875 C 2.363281 -3.191406 2.296875 -2.90625 2.296875 -2.5625 C 2.296875 -2.019531 2.453125 -1.609375 2.765625 -1.328125 C 3.085938 -1.046875 3.53125 -0.90625 4.09375 -0.90625 Z M 4.09375 -0.90625 "/></g></g></g><g fill="#000000" fill-opacity="1"><g transform="translate(662.906045, 517.912791)"><g><path d="M 1.609375 0 L 1.609375 -9.203125 L 2.890625 -9.203125 L 2.890625 -7.84375 L 3.078125 -7.8125 C 3.378906 -8.332031 3.75 -8.722656 4.1875 -8.984375 C 4.632812 -9.242188 5.171875 -9.375 5.796875 -9.375 C 6.503906 -9.375 7.050781 -9.238281 7.4375 -8.96875 C 7.832031 -8.707031 8.140625 -8.273438 8.359375 -7.671875 L 8.53125 -7.671875 C 8.84375 -8.234375 9.234375 -8.65625 9.703125 -8.9375 C 10.171875 -9.226562 10.742188 -9.375 11.421875 -9.375 C 12.367188 -9.375 13.070312 -9.117188 13.53125 -8.609375 C 14 -8.097656 14.234375 -7.320312 14.234375 -6.28125 L 14.234375 0 L 12.875 0 L 12.875 -6.25 C 12.875 -6.914062 12.734375 -7.40625 12.453125 -7.71875 C 12.171875 -8.039062 11.71875 -8.203125 11.09375 -8.203125 C 10.351562 -8.203125 9.75 -7.929688 9.28125 -7.390625 C 8.820312 -6.859375 8.59375 -5.976562 8.59375 -4.75 L 8.59375 0 L 7.234375 0 L 7.234375 -6.25 C 7.234375 -6.914062 7.09375 -7.40625 6.8125 -7.71875 C 6.53125 -8.039062 6.078125 -8.203125 5.453125 -8.203125 C 4.722656 -8.203125 4.125 -7.941406 3.65625 -7.421875 C 3.195312 -6.898438 2.96875 -6.0625 2.96875 -4.90625 L 2.96875 0 Z M 1.609375 0 "/></g></g></g><g fill="#000000" fill-opacity="1"><g transform="translate(678.593502, 517.912791)"><g/></g></g><g fill="#000000" fill-opacity="1"><g transform="translate(682.782387, 517.912791)"><g><path d="M 7.640625 0 L 6.28125 0 L 6.28125 -2.90625 L 0.5625 -2.90625 L 0.5625 -4.0625 L 5.9375 -12.203125 L 7.640625 -12.203125 L 7.640625 -4.0625 L 9.75 -4.0625 L 9.75 -2.90625 L 7.640625 -2.90625 Z M 2.25 -4.234375 L 2.328125 -4.0625 L 6.28125 -4.0625 L 6.28125 -10.21875 L 6.078125 -10.25 Z M 2.25 -4.234375 "/></g></g></g><g fill="#000000" fill-opacity="1"><g transform="translate(767.541406, 517.912791)"><g><path d="M 6.21875 -1.453125 L 6.65625 -0.484375 C 6.4375 -0.265625 6.148438 -0.101562 5.796875 0 C 5.453125 0.113281 5.070312 0.171875 4.65625 0.171875 C 2.894531 0.171875 2.015625 -0.71875 2.015625 -2.5 L 2.015625 -8.09375 L 0.421875 -8.09375 L 0.421875 -9.21875 L 2.015625 -9.21875 L 2.015625 -11.15625 L 3.375 -11.390625 L 3.375 -9.21875 L 6.34375 -9.21875 L 6.34375 -8.09375 L 3.375 -8.09375 L 3.375 -2.625 C 3.375 -1.570312 3.832031 -1.046875 4.75 -1.046875 C 5.257812 -1.046875 5.691406 -1.179688 6.046875 -1.453125 Z M 6.21875 -1.453125 "/></g></g></g><g fill="#000000" fill-opacity="1"><g transform="translate(774.442201, 517.912791)"><g><path d="M 8.765625 -4.296875 L 2.453125 -4.296875 C 2.484375 -3.171875 2.75 -2.347656 3.25 -1.828125 C 3.75 -1.304688 4.429688 -1.046875 5.296875 -1.046875 C 5.953125 -1.046875 6.476562 -1.160156 6.875 -1.390625 C 7.28125 -1.628906 7.597656 -2 7.828125 -2.5 L 8 -2.5 L 8.890625 -1.96875 C 8.617188 -1.300781 8.191406 -0.773438 7.609375 -0.390625 C 7.023438 -0.015625 6.253906 0.171875 5.296875 0.171875 C 4.410156 0.171875 3.644531 0 3 -0.34375 C 2.363281 -0.695312 1.875 -1.226562 1.53125 -1.9375 C 1.1875 -2.65625 1.015625 -3.539062 1.015625 -4.59375 C 1.015625 -5.644531 1.195312 -6.53125 1.5625 -7.25 C 1.925781 -7.96875 2.421875 -8.5 3.046875 -8.84375 C 3.679688 -9.195312 4.40625 -9.375 5.21875 -9.375 C 6.394531 -9.375 7.3125 -9.039062 7.96875 -8.375 C 8.632812 -7.71875 8.972656 -6.734375 8.984375 -5.421875 C 8.984375 -4.910156 8.972656 -4.566406 8.953125 -4.390625 Z M 7.640625 -5.421875 C 7.617188 -6.398438 7.398438 -7.113281 6.984375 -7.5625 C 6.578125 -8.007812 5.988281 -8.234375 5.21875 -8.234375 C 4.40625 -8.234375 3.769531 -8.007812 3.3125 -7.5625 C 2.851562 -7.113281 2.578125 -6.398438 2.484375 -5.421875 Z M 7.640625 -5.421875 "/></g></g></g><g fill="#000000" fill-opacity="1"><g transform="translate(784.255206, 517.912791)"><g><path d="M 3.796875 0.171875 C 2.890625 0.171875 2.179688 -0.0625 1.671875 -0.53125 C 1.160156 -1.007812 0.90625 -1.6875 0.90625 -2.5625 C 0.90625 -3.101562 1.015625 -3.5625 1.234375 -3.9375 C 1.460938 -4.3125 1.8125 -4.617188 2.28125 -4.859375 C 2.757812 -5.097656 3.378906 -5.28125 4.140625 -5.40625 C 4.816406 -5.519531 5.328125 -5.644531 5.671875 -5.78125 C 6.015625 -5.925781 6.242188 -6.082031 6.359375 -6.25 C 6.484375 -6.425781 6.546875 -6.644531 6.546875 -6.90625 C 6.546875 -7.320312 6.398438 -7.640625 6.109375 -7.859375 C 5.828125 -8.085938 5.367188 -8.203125 4.734375 -8.203125 C 4.140625 -8.203125 3.628906 -8.082031 3.203125 -7.84375 C 2.785156 -7.613281 2.394531 -7.269531 2.03125 -6.8125 L 1.875 -6.8125 L 1.203125 -7.765625 C 1.585938 -8.253906 2.082031 -8.644531 2.6875 -8.9375 C 3.289062 -9.226562 3.972656 -9.375 4.734375 -9.375 C 5.828125 -9.375 6.628906 -9.132812 7.140625 -8.65625 C 7.648438 -8.1875 7.90625 -7.53125 7.90625 -6.6875 L 7.90625 -1.8125 C 7.90625 -1.300781 8.125 -1.046875 8.5625 -1.046875 C 8.707031 -1.046875 8.847656 -1.070312 8.984375 -1.125 L 9.09375 -1.078125 L 9.25 -0.140625 C 9.15625 -0.078125 9.023438 -0.03125 8.859375 0 C 8.691406 0.0390625 8.523438 0.0625 8.359375 0.0625 C 7.847656 0.0625 7.460938 -0.046875 7.203125 -0.265625 C 6.941406 -0.484375 6.773438 -0.8125 6.703125 -1.25 L 6.53125 -1.265625 C 6.269531 -0.785156 5.914062 -0.425781 5.46875 -0.1875 C 5.03125 0.0507812 4.472656 0.171875 3.796875 0.171875 Z M 4.09375 -0.90625 C 4.601562 -0.90625 5.046875 -1.023438 5.421875 -1.265625 C 5.804688 -1.503906 6.097656 -1.835938 6.296875 -2.265625 C 6.492188 -2.691406 6.59375 -3.1875 6.59375 -3.75 L 6.59375 -4.921875 L 6.4375 -4.953125 C 6.226562 -4.804688 5.972656 -4.679688 5.671875 -4.578125 C 5.378906 -4.484375 4.972656 -4.398438 4.453125 -4.328125 C 3.910156 -4.253906 3.484375 -4.140625 3.171875 -3.984375 C 2.859375 -3.835938 2.632812 -3.648438 2.5 -3.421875 C 2.363281 -3.191406 2.296875 -2.90625 2.296875 -2.5625 C 2.296875 -2.019531 2.453125 -1.609375 2.765625 -1.328125 C 3.085938 -1.046875 3.53125 -0.90625 4.09375 -0.90625 Z M 4.09375 -0.90625 "/></g></g></g><g fill="#000000" fill-opacity="1"><g transform="translate(793.776163, 517.912791)"><g><path d="M 1.609375 0 L 1.609375 -9.203125 L 2.890625 -9.203125 L 2.890625 -7.84375 L 3.078125 -7.8125 C 3.378906 -8.332031 3.75 -8.722656 4.1875 -8.984375 C 4.632812 -9.242188 5.171875 -9.375 5.796875 -9.375 C 6.503906 -9.375 7.050781 -9.238281 7.4375 -8.96875 C 7.832031 -8.707031 8.140625 -8.273438 8.359375 -7.671875 L 8.53125 -7.671875 C 8.84375 -8.234375 9.234375 -8.65625 9.703125 -8.9375 C 10.171875 -9.226562 10.742188 -9.375 11.421875 -9.375 C 12.367188 -9.375 13.070312 -9.117188 13.53125 -8.609375 C 14 -8.097656 14.234375 -7.320312 14.234375 -6.28125 L 14.234375 0 L 12.875 0 L 12.875 -6.25 C 12.875 -6.914062 12.734375 -7.40625 12.453125 -7.71875 C 12.171875 -8.039062 11.71875 -8.203125 11.09375 -8.203125 C 10.351562 -8.203125 9.75 -7.929688 9.28125 -7.390625 C 8.820312 -6.859375 8.59375 -5.976562 8.59375 -4.75 L 8.59375 0 L 7.234375 0 L 7.234375 -6.25 C 7.234375 -6.914062 7.09375 -7.40625 6.8125 -7.71875 C 6.53125 -8.039062 6.078125 -8.203125 5.453125 -8.203125 C 4.722656 -8.203125 4.125 -7.941406 3.65625 -7.421875 C 3.195312 -6.898438 2.96875 -6.0625 2.96875 -4.90625 L 2.96875 0 Z M 1.609375 0 "/></g></g></g><g fill="#000000" fill-opacity="1"><g transform="translate(809.463621, 517.912791)"><g/></g></g><g fill="#000000" fill-opacity="1"><g transform="translate(813.652506, 517.912791)"><g><path d="M 5.03125 0.171875 C 3.882812 0.171875 2.96875 -0.078125 2.28125 -0.578125 C 1.601562 -1.085938 1.160156 -1.804688 0.953125 -2.734375 L 2.015625 -3.21875 L 2.21875 -3.1875 C 2.351562 -2.71875 2.53125 -2.332031 2.75 -2.03125 C 2.976562 -1.726562 3.273438 -1.5 3.640625 -1.34375 C 4.015625 -1.195312 4.476562 -1.125 5.03125 -1.125 C 5.851562 -1.125 6.492188 -1.367188 6.953125 -1.859375 C 7.410156 -2.347656 7.640625 -3.0625 7.640625 -4 C 7.640625 -4.957031 7.410156 -5.6875 6.953125 -6.1875 C 6.503906 -6.6875 5.882812 -6.9375 5.09375 -6.9375 C 4.488281 -6.9375 3.992188 -6.8125 3.609375 -6.5625 C 3.234375 -6.320312 2.898438 -5.945312 2.609375 -5.4375 L 1.453125 -5.546875 L 1.6875 -12.203125 L 8.53125 -12.203125 L 8.53125 -10.984375 L 2.953125 -10.984375 L 2.796875 -6.9375 L 2.984375 -6.90625 C 3.265625 -7.320312 3.613281 -7.632812 4.03125 -7.84375 C 4.445312 -8.050781 4.945312 -8.15625 5.53125 -8.15625 C 6.257812 -8.15625 6.894531 -7.992188 7.4375 -7.671875 C 7.976562 -7.347656 8.394531 -6.875 8.6875 -6.25 C 8.988281 -5.625 9.140625 -4.875 9.140625 -4 C 9.140625 -3.132812 8.96875 -2.382812 8.625 -1.75 C 8.28125 -1.125 7.796875 -0.644531 7.171875 -0.3125 C 6.554688 0.0078125 5.84375 0.171875 5.03125 0.171875 Z M 5.03125 0.171875 "/></g></g></g><g fill="#000000" fill-opacity="1"><g transform="translate(188.194985, 501.870621)"><g><path d="M 6 0.171875 C 5.101562 0.171875 4.296875 -0.0390625 3.578125 -0.46875 C 2.867188 -0.90625 2.300781 -1.59375 1.875 -2.53125 C 1.457031 -3.46875 1.25 -4.65625 1.25 -6.09375 C 1.25 -7.539062 1.457031 -8.734375 1.875 -9.671875 C 2.300781 -10.609375 2.867188 -11.289062 3.578125 -11.71875 C 4.296875 -12.15625 5.101562 -12.375 6 -12.375 C 6.894531 -12.375 7.695312 -12.15625 8.40625 -11.71875 C 9.125 -11.289062 9.691406 -10.609375 10.109375 -9.671875 C 10.523438 -8.734375 10.734375 -7.539062 10.734375 -6.09375 C 10.734375 -4.65625 10.523438 -3.46875 10.109375 -2.53125 C 9.691406 -1.59375 9.125 -0.90625 8.40625 -0.46875 C 7.695312 -0.0390625 6.894531 0.171875 6 0.171875 Z M 6 -1.15625 C 7.0625 -1.15625 7.863281 -1.535156 8.40625 -2.296875 C 8.957031 -3.066406 9.234375 -4.332031 9.234375 -6.09375 C 9.234375 -7.863281 8.957031 -9.128906 8.40625 -9.890625 C 7.863281 -10.660156 7.0625 -11.046875 6 -11.046875 C 5.300781 -11.046875 4.710938 -10.882812 4.234375 -10.5625 C 3.753906 -10.238281 3.382812 -9.710938 3.125 -8.984375 C 2.875 -8.253906 2.75 -7.289062 2.75 -6.09375 C 2.75 -4.90625 2.875 -3.945312 3.125 -3.21875 C 3.382812 -2.488281 3.753906 -1.960938 4.234375 -1.640625 C 4.710938 -1.316406 5.300781 -1.15625 6 -1.15625 Z M 6 -1.15625 "/></g></g></g><g fill="#000000" fill-opacity="1"><g transform="translate(189.143741, 408.837813)"><g><path d="M 5.03125 0.171875 C 3.882812 0.171875 2.96875 -0.078125 2.28125 -0.578125 C 1.601562 -1.085938 1.160156 -1.804688 0.953125 -2.734375 L 2.015625 -3.21875 L 2.21875 -3.1875 C 2.351562 -2.71875 2.53125 -2.332031 2.75 -2.03125 C 2.976562 -1.726562 3.273438 -1.5 3.640625 -1.34375 C 4.015625 -1.195312 4.476562 -1.125 5.03125 -1.125 C 5.851562 -1.125 6.492188 -1.367188 6.953125 -1.859375 C 7.410156 -2.347656 7.640625 -3.0625 7.640625 -4 C 7.640625 -4.957031 7.410156 -5.6875 6.953125 -6.1875 C 6.503906 -6.6875 5.882812 -6.9375 5.09375 -6.9375 C 4.488281 -6.9375 3.992188 -6.8125 3.609375 -6.5625 C 3.234375 -6.320312 2.898438 -5.945312 2.609375 -5.4375 L 1.453125 -5.546875 L 1.6875 -12.203125 L 8.53125 -12.203125 L 8.53125 -10.984375 L 2.953125 -10.984375 L 2.796875 -6.9375 L 2.984375 -6.90625 C 3.265625 -7.320312 3.613281 -7.632812 4.03125 -7.84375 C 4.445312 -8.050781 4.945312 -8.15625 5.53125 -8.15625 C 6.257812 -8.15625 6.894531 -7.992188 7.4375 -7.671875 C 7.976562 -7.347656 8.394531 -6.875 8.6875 -6.25 C 8.988281 -5.625 9.140625 -4.875 9.140625 -4 C 9.140625 -3.132812 8.96875 -2.382812 8.625 -1.75 C 8.28125 -1.125 7.796875 -0.644531 7.171875 -0.3125 C 6.554688 0.0078125 5.84375 0.171875 5.03125 0.171875 Z M 5.03125 0.171875 "/></g></g></g><g fill="#000000" fill-opacity="1"><g transform="translate(179.304807, 315.804933)"><g><path d="M 0.875 0 L 0.875 -1.1875 L 4.203125 -1.1875 L 4.203125 -10.515625 L 4 -10.5625 C 3.46875 -10.300781 3 -10.097656 2.59375 -9.953125 C 2.1875 -9.804688 1.664062 -9.671875 1.03125 -9.546875 L 1.03125 -10.859375 C 1.65625 -10.992188 2.273438 -11.175781 2.890625 -11.40625 C 3.503906 -11.632812 4.0625 -11.898438 4.5625 -12.203125 L 5.59375 -12.203125 L 5.59375 -1.1875 L 8.578125 -1.1875 L 8.578125 0 Z M 0.875 0 "/></g></g></g><g fill="#000000" fill-opacity="1"><g transform="translate(188.083062, 315.804933)"><g><path d="M 6 0.171875 C 5.101562 0.171875 4.296875 -0.0390625 3.578125 -0.46875 C 2.867188 -0.90625 2.300781 -1.59375 1.875 -2.53125 C 1.457031 -3.46875 1.25 -4.65625 1.25 -6.09375 C 1.25 -7.539062 1.457031 -8.734375 1.875 -9.671875 C 2.300781 -10.609375 2.867188 -11.289062 3.578125 -11.71875 C 4.296875 -12.15625 5.101562 -12.375 6 -12.375 C 6.894531 -12.375 7.695312 -12.15625 8.40625 -11.71875 C 9.125 -11.289062 9.691406 -10.609375 10.109375 -9.671875 C 10.523438 -8.734375 10.734375 -7.539062 10.734375 -6.09375 C 10.734375 -4.65625 10.523438 -3.46875 10.109375 -2.53125 C 9.691406 -1.59375 9.125 -0.90625 8.40625 -0.46875 C 7.695312 -0.0390625 6.894531 0.171875 6 0.171875 Z M 6 -1.15625 C 7.0625 -1.15625 7.863281 -1.535156 8.40625 -2.296875 C 8.957031 -3.066406 9.234375 -4.332031 9.234375 -6.09375 C 9.234375 -7.863281 8.957031 -9.128906 8.40625 -9.890625 C 7.863281 -10.660156 7.0625 -11.046875 6 -11.046875 C 5.300781 -11.046875 4.710938 -10.882812 4.234375 -10.5625 C 3.753906 -10.238281 3.382812 -9.710938 3.125 -8.984375 C 2.875 -8.253906 2.75 -7.289062 2.75 -6.09375 C 2.75 -4.90625 2.875 -3.945312 3.125 -3.21875 C 3.382812 -2.488281 3.753906 -1.960938 4.234375 -1.640625 C 4.710938 -1.316406 5.300781 -1.15625 6 -1.15625 Z M 6 -1.15625 "/></g></g></g><g fill="#000000" fill-opacity="1"><g transform="translate(180.101293, 222.772074)"><g><path d="M 0.875 0 L 0.875 -1.1875 L 4.203125 -1.1875 L 4.203125 -10.515625 L 4 -10.5625 C 3.46875 -10.300781 3 -10.097656 2.59375 -9.953125 C 2.1875 -9.804688 1.664062 -9.671875 1.03125 -9.546875 L 1.03125 -10.859375 C 1.65625 -10.992188 2.273438 -11.175781 2.890625 -11.40625 C 3.503906 -11.632812 4.0625 -11.898438 4.5625 -12.203125 L 5.59375 -12.203125 L 5.59375 -1.1875 L 8.578125 -1.1875 L 8.578125 0 Z M 0.875 0 "/></g></g></g><g fill="#000000" fill-opacity="1"><g transform="translate(189.196681, 222.772074)"><g><path d="M 5.03125 0.171875 C 3.882812 0.171875 2.96875 -0.078125 2.28125 -0.578125 C 1.601562 -1.085938 1.160156 -1.804688 0.953125 -2.734375 L 2.015625 -3.21875 L 2.21875 -3.1875 C 2.351562 -2.71875 2.53125 -2.332031 2.75 -2.03125 C 2.976562 -1.726562 3.273438 -1.5 3.640625 -1.34375 C 4.015625 -1.195312 4.476562 -1.125 5.03125 -1.125 C 5.851562 -1.125 6.492188 -1.367188 6.953125 -1.859375 C 7.410156 -2.347656 7.640625 -3.0625 7.640625 -4 C 7.640625 -4.957031 7.410156 -5.6875 6.953125 -6.1875 C 6.503906 -6.6875 5.882812 -6.9375 5.09375 -6.9375 C 4.488281 -6.9375 3.992188 -6.8125 3.609375 -6.5625 C 3.234375 -6.320312 2.898438 -5.945312 2.609375 -5.4375 L 1.453125 -5.546875 L 1.6875 -12.203125 L 8.53125 -12.203125 L 8.53125 -10.984375 L 2.953125 -10.984375 L 2.796875 -6.9375 L 2.984375 -6.90625 C 3.265625 -7.320312 3.613281 -7.632812 4.03125 -7.84375 C 4.445312 -8.050781 4.945312 -8.15625 5.53125 -8.15625 C 6.257812 -8.15625 6.894531 -7.992188 7.4375 -7.671875 C 7.976562 -7.347656 8.394531 -6.875 8.6875 -6.25 C 8.988281 -5.625 9.140625 -4.875 9.140625 -4 C 9.140625 -3.132812 8.96875 -2.382812 8.625 -1.75 C 8.28125 -1.125 7.796875 -0.644531 7.171875 -0.3125 C 6.554688 0.0078125 5.84375 0.171875 5.03125 0.171875 Z M 5.03125 0.171875 "/></g></g></g><g fill="#000000" fill-opacity="1"><g transform="translate(178.250634, 129.739216)"><g><path d="M 0.734375 -0.5625 C 0.734375 -1.226562 0.804688 -1.765625 0.953125 -2.171875 C 1.097656 -2.585938 1.347656 -2.972656 1.703125 -3.328125 C 2.066406 -3.691406 2.632812 -4.15625 3.40625 -4.71875 L 4.75 -5.703125 C 5.25 -6.066406 5.65625 -6.398438 5.96875 -6.703125 C 6.28125 -7.003906 6.523438 -7.332031 6.703125 -7.6875 C 6.890625 -8.050781 6.984375 -8.457031 6.984375 -8.90625 C 6.984375 -9.625 6.789062 -10.164062 6.40625 -10.53125 C 6.019531 -10.90625 5.414062 -11.09375 4.59375 -11.09375 C 3.945312 -11.09375 3.375 -10.941406 2.875 -10.640625 C 2.375 -10.335938 1.972656 -9.910156 1.671875 -9.359375 L 1.484375 -9.328125 L 0.625 -10.234375 C 1.039062 -10.898438 1.582031 -11.421875 2.25 -11.796875 C 2.914062 -12.179688 3.695312 -12.375 4.59375 -12.375 C 5.46875 -12.375 6.191406 -12.226562 6.765625 -11.9375 C 7.335938 -11.644531 7.757812 -11.238281 8.03125 -10.71875 C 8.300781 -10.195312 8.4375 -9.59375 8.4375 -8.90625 C 8.4375 -8.363281 8.320312 -7.851562 8.09375 -7.375 C 7.863281 -6.90625 7.539062 -6.460938 7.125 -6.046875 C 6.707031 -5.628906 6.1875 -5.1875 5.5625 -4.71875 L 4.203125 -3.734375 C 3.691406 -3.359375 3.300781 -3.039062 3.03125 -2.78125 C 2.757812 -2.519531 2.5625 -2.265625 2.4375 -2.015625 C 2.3125 -1.765625 2.25 -1.488281 2.25 -1.1875 L 8.4375 -1.1875 L 8.4375 0 L 0.734375 0 Z M 0.734375 -0.5625 "/></g></g></g><g fill="#000000" fill-opacity="1"><g transform="translate(187.629731, 129.739216)"><g><path d="M 6 0.171875 C 5.101562 0.171875 4.296875 -0.0390625 3.578125 -0.46875 C 2.867188 -0.90625 2.300781 -1.59375 1.875 -2.53125 C 1.457031 -3.46875 1.25 -4.65625 1.25 -6.09375 C 1.25 -7.539062 1.457031 -8.734375 1.875 -9.671875 C 2.300781 -10.609375 2.867188 -11.289062 3.578125 -11.71875 C 4.296875 -12.15625 5.101562 -12.375 6 -12.375 C 6.894531 -12.375 7.695312 -12.15625 8.40625 -11.71875 C 9.125 -11.289062 9.691406 -10.609375 10.109375 -9.671875 C 10.523438 -8.734375 10.734375 -7.539062 10.734375 -6.09375 C 10.734375 -4.65625 10.523438 -3.46875 10.109375 -2.53125 C 9.691406 -1.59375 9.125 -0.90625 8.40625 -0.46875 C 7.695312 -0.0390625 6.894531 0.171875 6 0.171875 Z M 6 -1.15625 C 7.0625 -1.15625 7.863281 -1.535156 8.40625 -2.296875 C 8.957031 -3.066406 9.234375 -4.332031 9.234375 -6.09375 C 9.234375 -7.863281 8.957031 -9.128906 8.40625 -9.890625 C 7.863281 -10.660156 7.0625 -11.046875 6 -11.046875 C 5.300781 -11.046875 4.710938 -10.882812 4.234375 -10.5625 C 3.753906 -10.238281 3.382812 -9.710938 3.125 -8.984375 C 2.875 -8.253906 2.75 -7.289062 2.75 -6.09375 C 2.75 -4.90625 2.875 -3.945312 3.125 -3.21875 C 3.382812 -2.488281 3.753906 -1.960938 4.234375 -1.640625 C 4.710938 -1.316406 5.300781 -1.15625 6 -1.15625 Z M 6 -1.15625 "/></g></g></g><g fill="#000000" fill-opacity="1"><g transform="translate(179.960737, 36.706357)"><g><path d="M 0.734375 -0.5625 C 0.734375 -1.226562 0.804688 -1.765625 0.953125 -2.171875 C 1.097656 -2.585938 1.347656 -2.972656 1.703125 -3.328125 C 2.066406 -3.691406 2.632812 -4.15625 3.40625 -4.71875 L 4.75 -5.703125 C 5.25 -6.066406 5.65625 -6.398438 5.96875 -6.703125 C 6.28125 -7.003906 6.523438 -7.332031 6.703125 -7.6875 C 6.890625 -8.050781 6.984375 -8.457031 6.984375 -8.90625 C 6.984375 -9.625 6.789062 -10.164062 6.40625 -10.53125 C 6.019531 -10.90625 5.414062 -11.09375 4.59375 -11.09375 C 3.945312 -11.09375 3.375 -10.941406 2.875 -10.640625 C 2.375 -10.335938 1.972656 -9.910156 1.671875 -9.359375 L 1.484375 -9.328125 L 0.625 -10.234375 C 1.039062 -10.898438 1.582031 -11.421875 2.25 -11.796875 C 2.914062 -12.179688 3.695312 -12.375 4.59375 -12.375 C 5.46875 -12.375 6.191406 -12.226562 6.765625 -11.9375 C 7.335938 -11.644531 7.757812 -11.238281 8.03125 -10.71875 C 8.300781 -10.195312 8.4375 -9.59375 8.4375 -8.90625 C 8.4375 -8.363281 8.320312 -7.851562 8.09375 -7.375 C 7.863281 -6.90625 7.539062 -6.460938 7.125 -6.046875 C 6.707031 -5.628906 6.1875 -5.1875 5.5625 -4.71875 L 4.203125 -3.734375 C 3.691406 -3.359375 3.300781 -3.039062 3.03125 -2.78125 C 2.757812 -2.519531 2.5625 -2.265625 2.4375 -2.015625 C 2.3125 -1.765625 2.25 -1.488281 2.25 -1.1875 L 8.4375 -1.1875 L 8.4375 0 L 0.734375 0 Z M 0.734375 -0.5625 "/></g></g></g><g fill="#000000" fill-opacity="1"><g transform="translate(189.339834, 36.706357)"><g><path d="M 5.03125 0.171875 C 3.882812 0.171875 2.96875 -0.078125 2.28125 -0.578125 C 1.601562 -1.085938 1.160156 -1.804688 0.953125 -2.734375 L 2.015625 -3.21875 L 2.21875 -3.1875 C 2.351562 -2.71875 2.53125 -2.332031 2.75 -2.03125 C 2.976562 -1.726562 3.273438 -1.5 3.640625 -1.34375 C 4.015625 -1.195312 4.476562 -1.125 5.03125 -1.125 C 5.851562 -1.125 6.492188 -1.367188 6.953125 -1.859375 C 7.410156 -2.347656 7.640625 -3.0625 7.640625 -4 C 7.640625 -4.957031 7.410156 -5.6875 6.953125 -6.1875 C 6.503906 -6.6875 5.882812 -6.9375 5.09375 -6.9375 C 4.488281 -6.9375 3.992188 -6.8125 3.609375 -6.5625 C 3.234375 -6.320312 2.898438 -5.945312 2.609375 -5.4375 L 1.453125 -5.546875 L 1.6875 -12.203125 L 8.53125 -12.203125 L 8.53125 -10.984375 L 2.953125 -10.984375 L 2.796875 -6.9375 L 2.984375 -6.90625 C 3.265625 -7.320312 3.613281 -7.632812 4.03125 -7.84375 C 4.445312 -8.050781 4.945312 -8.15625 5.53125 -8.15625 C 6.257812 -8.15625 6.894531 -7.992188 7.4375 -7.671875 C 7.976562 -7.347656 8.394531 -6.875 8.6875 -6.25 C 8.988281 -5.625 9.140625 -4.875 9.140625 -4 C 9.140625 -3.132812 8.96875 -2.382812 8.625 -1.75 C 8.28125 -1.125 7.796875 -0.644531 7.171875 -0.3125 C 6.554688 0.0078125 5.84375 0.171875 5.03125 0.171875 Z M 5.03125 0.171875 "/></g></g></g><g clip-path="url(#93c63eb6c8)"><g mask="url(#12f82eb6a2)"><g transform="matrix(1, 0, 0, 1, 211, 29)"><g clip-path="url(#b46648adff)"><g clip-path="url(#777ff98ef1)"><path stroke-linecap="butt" transform="matrix(0.749634, 0, 0, 0.749634, 1.174214, 1.709282)" fill="none" stroke-linejoin="miter" d="M 0.00209005 496.416257 L 857.045196 496.416257 " stroke="#000000" stroke-width="1" stroke-opacity="1" stroke-miterlimit="4"/></g><g clip-path="url(#205f49e65d)"><path stroke-linecap="butt" transform="matrix(0.749634, 0, 0, 0.749634, 1.174214, 1.709282)" fill="none" stroke-linejoin="miter" d="M 0.00209005 372.314048 L 857.045196 372.314048 " stroke="#000000" stroke-width="1" stroke-opacity="1" stroke-miterlimit="4"/></g><g clip-path="url(#1a120b894e)"><path stroke-linecap="butt" transform="matrix(0.749634, 0, 0, 0.749634, 1.174214, 1.709282)" fill="none" stroke-linejoin="miter" d="M 0.00209005 248.206627 L 857.045196 248.206627 " stroke="#000000" stroke-width="1" stroke-opacity="1" stroke-miterlimit="4"/></g><g clip-path="url(#e8abbc5cca)"><path stroke-linecap="butt" transform="matrix(0.749634, 0, 0, 0.749634, 1.174214, 1.709282)" fill="none" stroke-linejoin="miter" d="M 0.00209005 124.104418 L 857.045196 124.104418 " stroke="#000000" stroke-width="1" stroke-opacity="1" stroke-miterlimit="4"/></g><g clip-path="url(#4f2924417e)"><path stroke-linecap="butt" transform="matrix(0.749634, 0, 0, 0.749634, 1.174214, 1.709282)" fill="none" stroke-linejoin="miter" d="M 0.00209005 0.00220829 L 857.045196 0.00220829 " stroke="#000000" stroke-width="1" stroke-opacity="1" stroke-miterlimit="4"/></g></g></g></g></g><g clip-path="url(#1851898e08)"><g mask="url(#cc20921da4)"><g transform="matrix(1, 0, 0, 1, 211, 495)"><g clip-path="url(#8fb019173d)"><g clip-path="url(#f7d0c4ca25)"><path stroke-linecap="butt" transform="matrix(0.749634, 0, 0, 0.749634, 1.174214, -464.290732)" fill="none" stroke-linejoin="miter" d="M 0.00209005 620.523697 L 857.045196 620.523697 " stroke="#000000" stroke-width="1" stroke-opacity="1" stroke-miterlimit="4"/></g></g></g></g></g><g clip-path="url(#30bd588315)"><path fill="#41b8d5" d="M 255.214844 402.839844 L 287.136719 402.839844 C 287.539062 402.839844 287.929688 402.917969 288.300781 403.070312 C 288.671875 403.226562 289 403.445312 289.285156 403.730469 C 289.570312 404.015625 289.792969 404.34375 289.945312 404.71875 C 290.101562 405.089844 290.175781 405.476562 290.175781 405.878906 L 290.175781 495.875 C 290.175781 496.277344 290.101562 496.664062 289.945312 497.035156 C 289.792969 497.410156 289.570312 497.738281 289.285156 498.023438 C 289 498.308594 288.671875 498.527344 288.300781 498.683594 C 287.929688 498.835938 287.539062 498.914062 287.136719 498.914062 L 255.214844 498.914062 C 254.8125 498.914062 254.425781 498.835938 254.050781 498.683594 C 253.679688 498.527344 253.351562 498.308594 253.066406 498.023438 C 252.78125 497.738281 252.5625 497.410156 252.40625 497.035156 C 252.253906 496.664062 252.175781 496.277344 252.175781 495.875 L 252.175781 405.878906 C 252.175781 405.476562 252.253906 405.089844 252.40625 404.71875 C 252.5625 404.34375 252.78125 404.015625 253.066406 403.730469 C 253.351562 403.445312 253.679688 403.226562 254.050781 403.070312 C 254.425781 402.917969 254.8125 402.839844 255.214844 402.839844 Z M 255.214844 402.839844 " fill-opacity="1" fill-rule="nonzero"/></g><g clip-path="url(#1fca8e2aef)"><path fill="#2d8bba" d="M 295.21875 402.839844 L 327.136719 402.839844 C 327.542969 402.839844 327.929688 402.917969 328.300781 403.070312 C 328.675781 403.226562 329.003906 403.445312 329.289062 403.730469 C 329.574219 404.015625 329.792969 404.34375 329.949219 404.71875 C 330.101562 405.089844 330.179688 405.476562 330.179688 405.878906 L 330.179688 495.875 C 330.179688 496.277344 330.101562 496.664062 329.949219 497.035156 C 329.792969 497.410156 329.574219 497.738281 329.289062 498.023438 C 329.003906 498.308594 328.675781 498.527344 328.300781 498.683594 C 327.929688 498.835938 327.542969 498.914062 327.136719 498.914062 L 295.21875 498.914062 C 294.8125 498.914062 294.425781 498.835938 294.054688 498.683594 C 293.679688 498.527344 293.351562 498.308594 293.066406 498.023438 C 292.78125 497.738281 292.5625 497.410156 292.410156 497.035156 C 292.253906 496.664062 292.175781 496.277344 292.175781 495.875 L 292.175781 405.878906 C 292.175781 405.476562 292.253906 405.089844 292.410156 404.71875 C 292.5625 404.34375 292.78125 404.015625 293.066406 403.730469 C 293.351562 403.445312 293.679688 403.226562 294.054688 403.070312 C 294.425781 402.917969 294.8125 402.839844 295.21875 402.839844 Z M 295.21875 402.839844 " fill-opacity="1" fill-rule="nonzero"/></g><g clip-path="url(#9c68145ec9)"><path fill="#6ce5e8" d="M 346.332031 347.019531 L 378.25 347.019531 C 378.65625 347.019531 379.042969 347.097656 379.414062 347.253906 C 379.789062 347.40625 380.117188 347.625 380.402344 347.910156 C 380.6875 348.195312 380.90625 348.523438 381.058594 348.898438 C 381.214844 349.269531 381.292969 349.65625 381.292969 350.0625 L 381.292969 495.875 C 381.292969 496.277344 381.214844 496.664062 381.058594 497.035156 C 380.90625 497.410156 380.6875 497.738281 380.402344 498.023438 C 380.117188 498.308594 379.789062 498.527344 379.414062 498.683594 C 379.042969 498.835938 378.65625 498.914062 378.25 498.914062 L 346.332031 498.914062 C 345.925781 498.914062 345.539062 498.835938 345.167969 498.683594 C 344.792969 498.527344 344.464844 498.308594 344.179688 498.023438 C 343.894531 497.738281 343.675781 497.410156 343.523438 497.035156 C 343.367188 496.664062 343.289062 496.277344 343.289062 495.875 L 343.289062 350.0625 C 343.289062 349.65625 343.367188 349.269531 343.523438 348.898438 C 343.675781 348.523438 343.894531 348.195312 344.179688 347.910156 C 344.464844 347.625 344.792969 347.40625 345.167969 347.253906 C 345.539062 347.097656 345.925781 347.019531 346.332031 347.019531 Z M 346.332031 347.019531 " fill-opacity="1" fill-rule="nonzero"/></g><g clip-path="url(#4a817cf504)"><path fill="#41b8d5" d="M 386.332031 347.019531 L 418.253906 347.019531 C 418.65625 347.019531 419.042969 347.097656 419.417969 347.253906 C 419.789062 347.40625 420.117188 347.625 420.402344 347.910156 C 420.6875 348.195312 420.90625 348.523438 421.0625 348.898438 C 421.214844 349.269531 421.292969 349.65625 421.292969 350.0625 L 421.292969 495.875 C 421.292969 496.277344 421.214844 496.664062 421.0625 497.035156 C 420.90625 497.410156 420.6875 497.738281 420.402344 498.023438 C 420.117188 498.308594 419.789062 498.527344 419.417969 498.683594 C 419.042969 498.835938 418.65625 498.914062 418.253906 498.914062 L 386.332031 498.914062 C 385.929688 498.914062 385.539062 498.835938 385.167969 498.683594 C 384.796875 498.527344 384.46875 498.308594 384.183594 498.023438 C 383.898438 497.738281 383.675781 497.410156 383.523438 497.035156 C 383.367188 496.664062 383.292969 496.277344 383.292969 495.875 L 383.292969 350.0625 C 383.292969 349.65625 383.367188 349.269531 383.523438 348.898438 C 383.675781 348.523438 383.898438 348.195312 384.183594 347.910156 C 384.46875 347.625 384.796875 347.40625 385.167969 347.253906 C 385.539062 347.097656 385.929688 347.019531 386.332031 347.019531 Z M 386.332031 347.019531 " fill-opacity="1" fill-rule="nonzero"/></g><g clip-path="url(#d8867e3b88)"><path fill="#2d8bba" d="M 426.332031 421.449219 L 458.253906 421.449219 C 458.65625 421.449219 459.046875 421.523438 459.417969 421.679688 C 459.789062 421.832031 460.121094 422.050781 460.40625 422.335938 C 460.6875 422.621094 460.910156 422.953125 461.0625 423.324219 C 461.21875 423.695312 461.292969 424.085938 461.292969 424.488281 L 461.292969 495.875 C 461.292969 496.277344 461.21875 496.664062 461.0625 497.035156 C 460.910156 497.410156 460.6875 497.738281 460.40625 498.023438 C 460.121094 498.308594 459.789062 498.527344 459.417969 498.683594 C 459.046875 498.835938 458.65625 498.914062 458.253906 498.914062 L 426.332031 498.914062 C 425.929688 498.914062 425.542969 498.835938 425.171875 498.683594 C 424.796875 498.527344 424.46875 498.308594 424.183594 498.023438 C 423.898438 497.738281 423.679688 497.410156 423.523438 497.035156 C 423.371094 496.664062 423.292969 496.277344 423.292969 495.875 L 423.292969 424.488281 C 423.292969 424.085938 423.371094 423.695312 423.523438 423.324219 C 423.679688 422.953125 423.898438 422.621094 424.183594 422.335938 C 424.46875 422.050781 424.796875 421.832031 425.171875 421.679688 C 425.542969 421.523438 425.929688 421.449219 426.332031 421.449219 Z M 426.332031 421.449219 " fill-opacity="1" fill-rule="nonzero"/></g><g clip-path="url(#48206de622)"><path fill="#6ce5e8" d="M 477.445312 216.773438 L 509.367188 216.773438 C 509.769531 216.773438 510.160156 216.851562 510.53125 217.007812 C 510.902344 217.160156 511.230469 217.378906 511.515625 217.664062 C 511.800781 217.949219 512.023438 218.277344 512.175781 218.652344 C 512.332031 219.023438 512.40625 219.410156 512.40625 219.816406 L 512.40625 495.875 C 512.40625 496.277344 512.332031 496.664062 512.175781 497.035156 C 512.023438 497.410156 511.800781 497.738281 511.515625 498.023438 C 511.230469 498.308594 510.902344 498.527344 510.53125 498.683594 C 510.160156 498.835938 509.769531 498.914062 509.367188 498.914062 L 477.445312 498.914062 C 477.042969 498.914062 476.65625 498.835938 476.28125 498.683594 C 475.910156 498.527344 475.582031 498.308594 475.296875 498.023438 C 475.011719 497.738281 474.792969 497.410156 474.636719 497.035156 C 474.484375 496.664062 474.40625 496.277344 474.40625 495.875 L 474.40625 219.816406 C 474.40625 219.410156 474.484375 219.023438 474.636719 218.652344 C 474.792969 218.277344 475.011719 217.949219 475.296875 217.664062 C 475.582031 217.378906 475.910156 217.160156 476.28125 217.007812 C 476.65625 216.851562 477.042969 216.773438 477.445312 216.773438 Z M 477.445312 216.773438 " fill-opacity="1" fill-rule="nonzero"/></g><g clip-path="url(#ed331c772b)"><path fill="#41b8d5" d="M 517.449219 309.808594 L 549.371094 309.808594 C 549.773438 309.808594 550.160156 309.886719 550.53125 310.039062 C 550.90625 310.195312 551.234375 310.414062 551.519531 310.699219 C 551.804688 310.984375 552.023438 311.3125 552.179688 311.683594 C 552.332031 312.058594 552.410156 312.445312 552.410156 312.847656 L 552.410156 495.875 C 552.410156 496.277344 552.332031 496.664062 552.179688 497.035156 C 552.023438 497.410156 551.804688 497.738281 551.519531 498.023438 C 551.234375 498.308594 550.90625 498.527344 550.53125 498.683594 C 550.160156 498.835938 549.773438 498.914062 549.371094 498.914062 L 517.449219 498.914062 C 517.046875 498.914062 516.65625 498.835938 516.285156 498.683594 C 515.914062 498.527344 515.582031 498.308594 515.296875 498.023438 C 515.011719 497.738281 514.792969 497.410156 514.640625 497.035156 C 514.484375 496.664062 514.40625 496.277344 514.40625 495.875 L 514.40625 312.847656 C 514.40625 312.445312 514.484375 312.058594 514.640625 311.683594 C 514.792969 311.3125 515.011719 310.984375 515.296875 310.699219 C 515.582031 310.414062 515.914062 310.195312 516.285156 310.039062 C 516.65625 309.886719 517.046875 309.808594 517.449219 309.808594 Z M 517.449219 309.808594 " fill-opacity="1" fill-rule="nonzero"/></g><g clip-path="url(#66b5456558)"><path fill="#2d8bba" d="M 557.449219 402.839844 L 589.371094 402.839844 C 589.773438 402.839844 590.160156 402.917969 590.535156 403.070312 C 590.90625 403.226562 591.234375 403.445312 591.519531 403.730469 C 591.804688 404.015625 592.023438 404.34375 592.179688 404.71875 C 592.332031 405.089844 592.410156 405.476562 592.410156 405.878906 L 592.410156 495.875 C 592.410156 496.277344 592.332031 496.664062 592.179688 497.035156 C 592.023438 497.410156 591.804688 497.738281 591.519531 498.023438 C 591.234375 498.308594 590.90625 498.527344 590.535156 498.683594 C 590.160156 498.835938 589.773438 498.914062 589.371094 498.914062 L 557.449219 498.914062 C 557.046875 498.914062 556.660156 498.835938 556.285156 498.683594 C 555.914062 498.527344 555.585938 498.308594 555.300781 498.023438 C 555.015625 497.738281 554.796875 497.410156 554.640625 497.035156 C 554.488281 496.664062 554.410156 496.277344 554.410156 495.875 L 554.410156 405.878906 C 554.410156 405.476562 554.488281 405.089844 554.640625 404.71875 C 554.796875 404.34375 555.015625 404.015625 555.300781 403.730469 C 555.585938 403.445312 555.914062 403.226562 556.285156 403.070312 C 556.660156 402.917969 557.046875 402.839844 557.449219 402.839844 Z M 557.449219 402.839844 " fill-opacity="1" fill-rule="nonzero"/></g><g clip-path="url(#0212d13f85)"><path fill="#6ce5e8" d="M 608.5625 160.957031 L 640.484375 160.957031 C 640.886719 160.957031 641.273438 161.03125 641.648438 161.1875 C 642.019531 161.339844 642.347656 161.5625 642.632812 161.84375 C 642.917969 162.128906 643.136719 162.460938 643.292969 162.832031 C 643.445312 163.203125 643.523438 163.59375 643.523438 163.996094 L 643.523438 495.875 C 643.523438 496.277344 643.445312 496.664062 643.292969 497.035156 C 643.136719 497.410156 642.917969 497.738281 642.632812 498.023438 C 642.347656 498.308594 642.019531 498.527344 641.648438 498.683594 C 641.273438 498.835938 640.886719 498.914062 640.484375 498.914062 L 608.5625 498.914062 C 608.160156 498.914062 607.773438 498.835938 607.398438 498.683594 C 607.027344 498.527344 606.699219 498.308594 606.414062 498.023438 C 606.128906 497.738281 605.910156 497.410156 605.753906 497.035156 C 605.601562 496.664062 605.523438 496.277344 605.523438 495.875 L 605.523438 163.996094 C 605.523438 163.59375 605.601562 163.203125 605.753906 162.832031 C 605.910156 162.460938 606.128906 162.128906 606.414062 161.84375 C 606.699219 161.5625 607.027344 161.339844 607.398438 161.1875 C 607.773438 161.03125 608.160156 160.957031 608.5625 160.957031 Z M 608.5625 160.957031 " fill-opacity="1" fill-rule="nonzero"/></g><g clip-path="url(#067689528d)"><path fill="#41b8d5" d="M 648.5625 235.382812 L 680.484375 235.382812 C 680.886719 235.382812 681.277344 235.457031 681.648438 235.613281 C 682.019531 235.765625 682.351562 235.988281 682.636719 236.273438 C 682.921875 236.558594 683.140625 236.886719 683.292969 237.257812 C 683.449219 237.628906 683.527344 238.019531 683.527344 238.421875 L 683.527344 495.875 C 683.527344 496.277344 683.449219 496.664062 683.292969 497.035156 C 683.140625 497.410156 682.921875 497.738281 682.636719 498.023438 C 682.351562 498.308594 682.019531 498.527344 681.648438 498.683594 C 681.277344 498.835938 680.886719 498.914062 680.484375 498.914062 L 648.5625 498.914062 C 648.160156 498.914062 647.773438 498.835938 647.402344 498.683594 C 647.027344 498.527344 646.699219 498.308594 646.414062 498.023438 C 646.128906 497.738281 645.910156 497.410156 645.753906 497.035156 C 645.601562 496.664062 645.523438 496.277344 645.523438 495.875 L 645.523438 238.421875 C 645.523438 238.019531 645.601562 237.628906 645.753906 237.257812 C 645.910156 236.886719 646.128906 236.558594 646.414062 236.273438 C 646.699219 235.988281 647.027344 235.765625 647.402344 235.613281 C 647.773438 235.457031 648.160156 235.382812 648.5625 235.382812 Z M 648.5625 235.382812 " fill-opacity="1" fill-rule="nonzero"/></g><g clip-path="url(#cce23a2c5f)"><path fill="#2d8bba" d="M 688.566406 347.019531 L 720.488281 347.019531 C 720.890625 347.019531 721.277344 347.097656 721.648438 347.253906 C 722.023438 347.40625 722.351562 347.625 722.636719 347.910156 C 722.921875 348.195312 723.140625 348.523438 723.296875 348.898438 C 723.449219 349.269531 723.527344 349.65625 723.527344 350.0625 L 723.527344 495.875 C 723.527344 496.277344 723.449219 496.664062 723.296875 497.035156 C 723.140625 497.410156 722.921875 497.738281 722.636719 498.023438 C 722.351562 498.308594 722.023438 498.527344 721.648438 498.683594 C 721.277344 498.835938 720.890625 498.914062 720.488281 498.914062 L 688.566406 498.914062 C 688.164062 498.914062 687.773438 498.835938 687.402344 498.683594 C 687.03125 498.527344 686.699219 498.308594 686.417969 498.023438 C 686.132812 497.738281 685.910156 497.410156 685.757812 497.035156 C 685.601562 496.664062 685.527344 496.277344 685.527344 495.875 L 685.527344 350.0625 C 685.527344 349.65625 685.601562 349.269531 685.757812 348.898438 C 685.910156 348.523438 686.132812 348.195312 686.417969 347.910156 C 686.699219 347.625 687.03125 347.40625 687.402344 347.253906 C 687.773438 347.097656 688.164062 347.019531 688.566406 347.019531 Z M 688.566406 347.019531 " fill-opacity="1" fill-rule="nonzero"/></g><g clip-path="url(#0f9e6496f7)"><path fill="#6ce5e8" d="M 739.679688 86.527344 L 771.601562 86.527344 C 772.003906 86.527344 772.390625 86.605469 772.761719 86.761719 C 773.136719 86.914062 773.464844 87.132812 773.75 87.417969 C 774.035156 87.703125 774.253906 88.035156 774.410156 88.40625 C 774.5625 88.777344 774.640625 89.164062 774.640625 89.570312 L 774.640625 495.875 C 774.640625 496.277344 774.5625 496.664062 774.410156 497.035156 C 774.253906 497.410156 774.035156 497.738281 773.75 498.023438 C 773.464844 498.308594 773.136719 498.527344 772.761719 498.683594 C 772.390625 498.835938 772.003906 498.914062 771.601562 498.914062 L 739.679688 498.914062 C 739.277344 498.914062 738.886719 498.835938 738.515625 498.683594 C 738.144531 498.527344 737.8125 498.308594 737.527344 498.023438 C 737.242188 497.738281 737.023438 497.410156 736.871094 497.035156 C 736.714844 496.664062 736.640625 496.277344 736.640625 495.875 L 736.640625 89.570312 C 736.640625 89.164062 736.714844 88.777344 736.871094 88.40625 C 737.023438 88.035156 737.242188 87.703125 737.527344 87.417969 C 737.8125 87.132812 738.144531 86.914062 738.515625 86.761719 C 738.886719 86.605469 739.277344 86.527344 739.679688 86.527344 Z M 739.679688 86.527344 " fill-opacity="1" fill-rule="nonzero"/></g><g clip-path="url(#13ef0bec5b)"><path fill="#41b8d5" d="M 779.679688 123.742188 L 811.601562 123.742188 C 812.003906 123.742188 812.390625 123.820312 812.765625 123.972656 C 813.136719 124.128906 813.464844 124.347656 813.75 124.632812 C 814.035156 124.917969 814.257812 125.246094 814.410156 125.617188 C 814.566406 125.992188 814.640625 126.378906 814.640625 126.78125 L 814.640625 495.875 C 814.640625 496.277344 814.566406 496.664062 814.410156 497.035156 C 814.257812 497.410156 814.035156 497.738281 813.75 498.023438 C 813.464844 498.308594 813.136719 498.527344 812.765625 498.683594 C 812.390625 498.835938 812.003906 498.914062 811.601562 498.914062 L 779.679688 498.914062 C 779.277344 498.914062 778.890625 498.835938 778.515625 498.683594 C 778.144531 498.527344 777.816406 498.308594 777.53125 498.023438 C 777.246094 497.738281 777.027344 497.410156 776.871094 497.035156 C 776.71875 496.664062 776.640625 496.277344 776.640625 495.875 L 776.640625 126.78125 C 776.640625 126.378906 776.71875 125.992188 776.871094 125.617188 C 777.027344 125.246094 777.246094 124.917969 777.53125 124.632812 C 777.816406 124.347656 778.144531 124.128906 778.515625 123.972656 C 778.890625 123.820312 779.277344 123.742188 779.679688 123.742188 Z M 779.679688 123.742188 " fill-opacity="1" fill-rule="nonzero"/></g><g clip-path="url(#d2bb393d33)"><path fill="#2d8bba" d="M 819.683594 347.019531 L 851.601562 347.019531 C 852.007812 347.019531 852.394531 347.097656 852.765625 347.253906 C 853.140625 347.40625 853.46875 347.625 853.753906 347.910156 C 854.039062 348.195312 854.257812 348.523438 854.410156 348.898438 C 854.566406 349.269531 854.644531 349.65625 854.644531 350.0625 L 854.644531 495.875 C 854.644531 496.277344 854.566406 496.664062 854.410156 497.035156 C 854.257812 497.410156 854.039062 497.738281 853.753906 498.023438 C 853.46875 498.308594 853.140625 498.527344 852.765625 498.683594 C 852.394531 498.835938 852.007812 498.914062 851.601562 498.914062 L 819.683594 498.914062 C 819.277344 498.914062 818.890625 498.835938 818.519531 498.683594 C 818.144531 498.527344 817.816406 498.308594 817.53125 498.023438 C 817.246094 497.738281 817.027344 497.410156 816.875 497.035156 C 816.71875 496.664062 816.640625 496.277344 816.640625 495.875 L 816.640625 350.0625 C 816.640625 349.65625 816.71875 349.269531 816.875 348.898438 C 817.027344 348.523438 817.246094 348.195312 817.53125 347.910156 C 817.816406 347.625 818.144531 347.40625 818.519531 347.253906 C 818.890625 347.097656 819.277344 347.019531 819.683594 347.019531 Z M 819.683594 347.019531 " fill-opacity="1" fill-rule="nonzero"/></g></svg>